<svg id="图层_1" data-name="图层 1" xmlns="http://www.w3.org/2000/svg" viewBox="0 0 80 80"><defs><style>.cls-1{fill:#fff;}</style></defs><title>画板 1</title><path class="cls-1" d="M67.17,14.82,41.16,6A3.94,3.94,0,0,0,40,5.79,4.06,4.06,0,0,0,38.85,6l-26,8.87a1.82,1.82,0,0,0-1.16,1.62V53.36a2.88,2.88,0,0,0,1,2L39,75.89a1.6,1.6,0,0,0,1.92,0L67.34,55.34a2.86,2.86,0,0,0,1-2V16.44A1.81,1.81,0,0,0,67.17,14.82ZM48.79,44.21a11,11,0,0,1-13.67,1.54l-5.93,5.93a.6.6,0,0,1-.86,0l-2.6-2.6a.62.62,0,0,1,0-.87l5.93-5.93a11,11,0,1,1,17.13,1.93ZM36.66,40.75a6.13,6.13,0,0,0,8.74-8.61l-.07-.06a6.13,6.13,0,0,0-8.74,8.6A.46.46,0,0,1,36.66,40.75Z"/></svg>