<svg id="图层_1" data-name="图层 1" xmlns="http://www.w3.org/2000/svg" viewBox="0 0 80 80"><defs><style>.cls-1{fill:#fff;}</style></defs><title>画板 3</title><path class="cls-1" d="M67,69.08H13a6.22,6.22,0,0,1-6.23-6.23V17.15A6.22,6.22,0,0,1,13,10.92H67a6.22,6.22,0,0,1,6.23,6.23v45.7A6.22,6.22,0,0,1,67,69.08ZM23.38,22.34a5.2,5.2,0,1,0,5.2,5.2A5.19,5.19,0,0,0,23.38,22.34Zm0,12.47A5.19,5.19,0,1,0,28.58,40,5.19,5.19,0,0,0,23.38,34.81Zm0,12.46a5.2,5.2,0,1,0,5.2,5.19A5.19,5.19,0,0,0,23.38,47.27ZM60.77,29.61V25.46a1.56,1.56,0,0,0-1.56-1.56h-26a1.56,1.56,0,0,0-1.56,1.56v4.15a1.56,1.56,0,0,0,1.56,1.56h26A1.56,1.56,0,0,0,60.77,29.61Zm0,12.47V37.92a1.56,1.56,0,0,0-1.56-1.56h-26a1.56,1.56,0,0,0-1.56,1.56v4.16a1.56,1.56,0,0,0,1.56,1.56h26A1.56,1.56,0,0,0,60.77,42.08Zm0,12.46V50.39a1.56,1.56,0,0,0-1.56-1.56h-26a1.56,1.56,0,0,0-1.56,1.56v4.15a1.56,1.56,0,0,0,1.56,1.56h26A1.56,1.56,0,0,0,60.77,54.54Z"/></svg>