<svg id="图层_1" data-name="图层 1" xmlns="http://www.w3.org/2000/svg" viewBox="0 0 80 80"><defs><style>.cls-1{fill:#fff;}</style></defs><title>画板 5</title><path class="cls-1" d="M20.41,35.87H10.09A3.1,3.1,0,0,0,7,39V69.91A3.1,3.1,0,0,0,10.09,73H20.41a3.1,3.1,0,0,0,3.09-3.09V39A3.1,3.1,0,0,0,20.41,35.87Zm-5.16,32a3.09,3.09,0,1,1,3.09-3.09A3.09,3.09,0,0,1,15.25,67.84ZM56.5,17.5c0,5.47-3.35,8.53-4.29,12.19H65.32A7.7,7.7,0,0,1,73,37.18a9.31,9.31,0,0,1-2.51,6.34h0a10.78,10.78,0,0,1-1.2,10.25,10.18,10.18,0,0,1-2.11,9.63,6.88,6.88,0,0,1-.79,5.76C63.74,73,57.22,73,51.71,73h-.37C45.12,73,40,70.73,35.93,68.91c-2.06-.91-4.75-2-6.79-2.09a1.53,1.53,0,0,1-1.51-1.54V37.72a1.56,1.56,0,0,1,.45-1.1c5.11-5,7.31-10.38,11.49-14.58,1.91-1.91,2.6-4.8,3.27-7.59C43.42,12.07,44.62,7,47.22,7,50.31,7,56.5,8,56.5,17.5Z"/></svg>